<svg width="128" height="128" viewBox="0 0 128 128" fill="none" xmlns="http://www.w3.org/2000/svg">
<rect width="128" height="128" rx="64" fill="#7675BF"/>
<g clip-path="url(#clip0_6_18)">
<path d="M93.8734 43.0828C93.8734 38.0549 89.7832 33.9646 84.7552 33.9646C79.7273 33.9646 75.6371 38.0549 75.6371 43.0828C75.6371 48.1108 79.7273 52.201 84.7552 52.201C89.7832 52.201 93.8734 48.1108 93.8734 43.0828ZM82.2377 43.0828C82.2377 41.6946 83.367 40.5653 84.7552 40.5653C86.1435 40.5653 87.2727 41.6946 87.2727 43.0828C87.2727 44.471 86.1435 45.6003 84.7552 45.6003C83.3674 45.6003 82.2377 44.471 82.2377 43.0828Z" fill="#FFFFED"/>
<path d="M106.638 40.4115H105.195V35.671C105.195 29.1865 99.9189 23.9108 93.4343 23.9108H33.0744C29.4488 23.9108 25.9929 25.469 23.5923 28.1859C21.1916 30.9027 20.0707 34.5246 20.5172 38.1222C20.5202 38.1448 20.5229 38.1677 20.5263 38.1902L24.4114 64.9418C24.6471 66.5643 26.038 67.7677 27.6774 67.7677H29.566V72.1721C29.566 73.9947 31.0438 75.4724 32.8663 75.4724C34.6889 75.4724 36.1667 73.9947 36.1667 72.1721V67.7677H48.4327C50.2552 67.7677 51.733 66.2899 51.733 64.4674V59.701C51.733 58.4266 52.7694 57.3903 54.0438 57.3903H71.8643C73.1387 57.3903 74.1751 58.4266 74.1751 59.701V77.9546H22.1842C17.6714 77.9543 14 81.6256 14 86.1384C14 90.058 16.7704 93.3415 20.4559 94.1368V100.789C20.4559 102.612 21.9337 104.089 23.7562 104.089H101.894C103.717 104.089 105.195 102.612 105.195 100.789V67.7674H106.638C110.697 67.7674 114 64.4647 114 60.4051V47.7734C114 43.7138 110.697 40.4115 106.638 40.4115ZM40.531 30.5114H45.9583V40.6078H40.531V30.5114ZM22.1842 84.5549H77.4764C79.299 84.5549 80.7768 83.0772 80.7768 81.2546V59.7007C80.7768 54.7869 76.7791 50.7892 71.8653 50.7892H54.0448C49.131 50.7892 45.1333 54.7869 45.1333 59.7007V61.1667H30.534L27.064 37.2785C26.8572 35.5428 27.3805 33.867 28.5387 32.5562C29.7037 31.2374 31.3148 30.5111 33.0744 30.5111H35.5805V43.0825C35.5805 44.4498 36.6886 45.5579 38.0556 45.5579H48.4333C49.8007 45.5579 50.9084 44.4498 50.9084 43.0825V30.5114H93.4343C96.2791 30.5114 98.5939 32.8263 98.5939 35.671V87.7216H22.1842C21.3111 87.7216 20.6007 87.0112 20.6007 86.1384C20.6007 85.2654 21.3111 84.5549 22.1842 84.5549ZM98.5943 97.4886H27.0566V94.3219H98.5939L98.5943 97.4886ZM107.4 60.4051C107.4 60.8249 107.058 61.1667 106.638 61.1667H105.195V47.0121H106.638C107.058 47.0121 107.4 47.3539 107.4 47.7738V60.4051Z" fill="#FFFFED"/>
</g>
<defs>
<clipPath id="clip0_6_18">
<rect width="100" height="100" fill="white" transform="translate(14 14)"/>
</clipPath>
</defs>
</svg>
