<svg width="318" height="81" viewBox="0 0 318 81" fill="none" xmlns="http://www.w3.org/2000/svg">
<g clip-path="url(#clip0_11_48)">
<path d="M79.8734 19.0828C79.8734 14.0549 75.7832 9.96465 70.7552 9.96465C65.7273 9.96465 61.637 14.0549 61.637 19.0828C61.637 24.1108 65.7273 28.201 70.7552 28.201C75.7832 28.201 79.8734 24.1108 79.8734 19.0828ZM68.2377 19.0828C68.2377 17.6946 69.367 16.5653 70.7552 16.5653C72.1434 16.5653 73.2727 17.6946 73.2727 19.0828C73.2727 20.471 72.1434 21.6003 70.7552 21.6003C69.3673 21.6003 68.2377 20.471 68.2377 19.0828Z" fill="#fed72b"/>
<path d="M92.6377 16.5007H91.1946V11.7603C91.1946 5.27576 85.9189 0 79.4343 0H19.0744C15.4488 0 11.9929 1.55825 9.59226 4.27508C7.19158 6.99192 6.07071 10.6138 6.51717 14.2114C6.5202 14.234 6.5229 14.2569 6.52626 14.2795L10.4114 41.031C10.6471 42.6535 12.038 43.8569 13.6774 43.8569H15.566V48.2613C15.566 50.0838 17.0438 51.5616 18.8663 51.5616C20.6889 51.5616 22.1667 50.0838 22.1667 48.2613V43.8569H34.4327C36.2552 43.8569 37.733 42.3791 37.733 40.5566V35.7902C37.733 34.5158 38.7694 33.4795 40.0438 33.4795H57.8643C59.1387 33.4795 60.1751 34.5158 60.1751 35.7902V54.0438H8.18418C3.67138 54.0434 0 57.7148 0 62.2276C0 66.1471 2.77037 69.4306 6.45589 70.2259V76.8781C6.45589 78.7007 7.93367 80.1785 9.75623 80.1785H87.8943C89.7168 80.1785 91.1946 78.7007 91.1946 76.8781V43.8566H92.6377C96.6973 43.8566 100 40.5539 100 36.4943V23.8626C100 19.803 96.6973 16.5007 92.6377 16.5007ZM26.531 6.60067H31.9583V16.697H26.531V6.60067ZM8.18418 60.6441H63.4764C65.299 60.6441 66.7768 59.1663 66.7768 57.3438V35.7899C66.7768 30.8761 62.7791 26.8785 57.8653 26.8785H40.0448C35.131 26.8785 31.1333 30.8761 31.1333 35.7899V37.2559H16.534L13.064 13.3677C12.8572 11.632 13.3805 9.95623 14.5387 8.64545C15.7037 7.3266 17.3148 6.60034 19.0744 6.60034H21.5805V19.1717C21.5805 20.5391 22.6886 21.6471 24.0556 21.6471H34.4333C35.8007 21.6471 36.9084 20.5391 36.9084 19.1717V6.60067H79.4343C82.2791 6.60067 84.5939 8.91549 84.5939 11.7603V63.8108H8.18418C7.31111 63.8108 6.60067 63.1003 6.60067 62.2276C6.60067 61.3546 7.31111 60.6441 8.18418 60.6441ZM84.5943 73.5778H13.0566V70.4111H84.5939L84.5943 73.5778ZM93.3997 36.4943C93.3997 36.9141 93.0579 37.2559 92.6381 37.2559H91.195V23.1013H92.6381C93.0579 23.1013 93.3997 23.4431 93.3997 23.863V36.4943Z" fill="#fed72b"/>
<path d="M175.676 26.536C174.396 26.536 173.33 26.1093 172.476 25.256C171.644 24.424 171.228 23.4533 171.228 22.344C171.228 21.2133 171.495 20.168 172.028 19.208C172.562 18.2267 173.319 17.32 174.3 16.488C175.303 15.656 176.604 14.9733 178.204 14.44C179.804 13.8853 181.575 13.576 183.516 13.512C184.647 10.7173 185.65 7.592 186.524 4.136C186.546 4.008 186.556 3.848 186.556 3.656C186.556 3.44267 186.45 3.26133 186.236 3.112V2.792C188.071 2.45067 189.746 2.28 191.26 2.28L193.18 2.408C193.735 3.38933 194.044 4.75467 194.108 6.504C194.172 8.232 194.215 11.24 194.236 15.528C196.54 16.5307 198.514 17.8 200.156 19.336C200.071 19.6133 199.9 19.8907 199.644 20.168C199.41 20.424 199.186 20.616 198.972 20.744L198.652 20.936C197.394 19.6987 195.932 18.6427 194.268 17.768C194.311 18.984 194.428 20.008 194.62 20.84C194.919 22.2053 195.271 22.888 195.676 22.888C195.911 22.888 196.188 22.8347 196.508 22.728L196.988 23.976C195.516 24.9147 194.108 25.384 192.764 25.384C190.546 25.384 189.436 23.7093 189.436 20.36V16.168C187.943 15.8053 186.588 15.5813 185.372 15.496C182.599 22.856 179.367 26.536 175.676 26.536ZM182.716 15.464C180.306 15.656 178.3 16.4987 176.7 17.992C175.1 19.4853 174.3 20.8827 174.3 22.184C174.3 23.4853 174.802 24.136 175.804 24.136C177.852 24.136 180.156 21.2453 182.716 15.464ZM189.084 4.84C189.042 4.81867 188.956 4.808 188.828 4.808C188.7 4.808 188.615 4.81867 188.572 4.84C188.38 6.46133 187.548 9.37333 186.076 13.576C187.122 13.64 188.242 13.7893 189.436 14.024C189.436 8.776 189.319 5.71467 189.084 4.84ZM207.601 11.208C207.558 11.7413 207.377 12.36 207.057 13.064C206.246 12.9787 205.478 12.936 204.753 12.936H204.177C203.196 17.6933 202.705 20.6587 202.705 21.832C202.705 22.4507 202.833 22.76 203.089 22.76C203.366 22.76 204.081 22.4933 205.233 21.96L205.809 23.016C203.91 24.5947 202.15 25.384 200.529 25.384C199.782 25.384 199.164 25.1493 198.673 24.68C198.204 24.2107 197.969 23.592 197.969 22.824C197.969 22.0347 198.054 21.1493 198.225 20.168C198.417 19.1867 198.673 17.992 198.993 16.584C199.313 15.1547 199.548 14.0027 199.697 13.128C198.908 13.192 198.321 13.256 197.937 13.32C197.894 13.064 197.873 12.7227 197.873 12.296C197.873 11.848 197.905 11.4853 197.969 11.208H199.985C200.156 10.056 200.241 8.968 200.241 7.944L200.209 6.952V6.856C201.873 6.28 203.441 5.992 204.913 5.992C204.998 6.41867 205.041 6.952 205.041 7.592C205.041 8.232 204.86 9.43733 204.497 11.208H207.601ZM206.895 19.464C206.895 16.7973 207.695 14.696 209.295 13.16C210.916 11.6027 212.751 10.824 214.799 10.824C216.057 10.824 217.092 11.1333 217.903 11.752C218.713 12.3707 219.119 13.2027 219.119 14.248C219.119 15.272 218.852 16.136 218.319 16.84C217.807 17.544 217.177 18.088 216.431 18.472C214.916 19.2187 213.529 19.688 212.271 19.88L211.503 19.976C211.652 21.9813 212.473 22.984 213.967 22.984C214.479 22.984 215.023 22.856 215.599 22.6C216.175 22.344 216.623 22.088 216.943 21.832L217.423 21.448L218.191 22.472C218.02 22.7067 217.679 23.016 217.167 23.4C216.655 23.784 216.175 24.104 215.727 24.36C214.489 25.0427 213.135 25.384 211.663 25.384C210.191 25.384 209.028 24.8613 208.174 23.816C207.321 22.7707 206.895 21.32 206.895 19.464ZM211.471 18.408C212.559 18.216 213.423 17.7573 214.062 17.032C214.703 16.3067 215.023 15.368 215.023 14.216C215.023 13.064 214.681 12.488 213.999 12.488C213.188 12.488 212.559 13.1813 212.111 14.568C211.684 15.9333 211.471 17.2133 211.471 18.408ZM222.268 25.384C221.542 25.384 220.934 25.1387 220.444 24.648C219.974 24.1573 219.74 23.4747 219.74 22.6C219.74 21.704 220.262 18.8773 221.308 14.12C222.374 9.34133 222.908 5.896 222.908 3.784L222.716 2.376C224.38 1.8 225.937 1.512 227.388 1.512C227.601 1.81067 227.708 2.33333 227.708 3.08C227.708 4.78667 227.164 8.09333 226.076 13C225.009 17.8853 224.476 20.7333 224.476 21.544C224.476 22.3333 224.572 22.728 224.764 22.728L227.004 21.928L227.58 23.048C226.854 23.624 225.969 24.1573 224.924 24.648C223.9 25.1387 223.014 25.384 222.268 25.384ZM234.928 12.808C234.928 13.704 234.64 15.2507 234.064 17.448C233.488 19.624 233.2 21.0533 233.2 21.736C233.2 22.3973 233.296 22.728 233.488 22.728C233.616 22.728 234.106 22.5253 234.96 22.12L235.344 21.928L235.888 23.048C235.696 23.2187 235.44 23.432 235.12 23.688C234.8 23.944 234.202 24.296 233.328 24.744C232.453 25.1707 231.642 25.384 230.896 25.384C230.149 25.384 229.562 25.16 229.136 24.712C228.709 24.2427 228.496 23.624 228.496 22.856C228.496 22.0667 228.762 20.68 229.296 18.696C229.829 16.6907 230.096 15.3893 230.096 14.792C230.096 13.896 229.818 13.0533 229.264 12.264L228.976 11.88L229.008 11.464C230.138 11.144 231.973 10.984 234.512 10.984C234.789 11.304 234.928 11.912 234.928 12.808ZM231.28 7.496C230.853 7.06933 230.64 6.504 230.64 5.8C230.64 5.096 230.928 4.47733 231.504 3.944C232.101 3.41067 232.784 3.144 233.552 3.144C234.32 3.144 234.917 3.35733 235.344 3.784C235.77 4.21067 235.984 4.776 235.984 5.48C235.984 6.16267 235.674 6.77067 235.056 7.304C234.458 7.83733 233.786 8.104 233.04 8.104C232.293 8.104 231.706 7.90133 231.28 7.496ZM236.895 19.464C236.895 16.7973 237.695 14.696 239.295 13.16C240.916 11.6027 242.751 10.824 244.799 10.824C246.057 10.824 247.092 11.1333 247.903 11.752C248.713 12.3707 249.119 13.2027 249.119 14.248C249.119 15.272 248.852 16.136 248.319 16.84C247.807 17.544 247.177 18.088 246.431 18.472C244.916 19.2187 243.529 19.688 242.271 19.88L241.503 19.976C241.652 21.9813 242.473 22.984 243.967 22.984C244.479 22.984 245.023 22.856 245.599 22.6C246.175 22.344 246.623 22.088 246.943 21.832L247.423 21.448L248.191 22.472C248.02 22.7067 247.679 23.016 247.167 23.4C246.655 23.784 246.175 24.104 245.727 24.36C244.489 25.0427 243.135 25.384 241.663 25.384C240.191 25.384 239.028 24.8613 238.174 23.816C237.321 22.7707 236.895 21.32 236.895 19.464ZM241.471 18.408C242.559 18.216 243.423 17.7573 244.062 17.032C244.703 16.3067 245.023 15.368 245.023 14.216C245.023 13.064 244.681 12.488 243.999 12.488C243.188 12.488 242.559 13.1813 242.111 14.568C241.684 15.9333 241.471 17.2133 241.471 18.408ZM246.655 2.44C247.359 2.44 248.713 4.24267 250.719 7.848L249.727 8.776C247.892 7.34667 246.516 6.46133 245.599 6.12C243.871 6.58933 241.855 7.51733 239.551 8.904L238.687 7.72C239.817 6.632 241.279 5.48 243.071 4.264C244.884 3.048 246.079 2.44 246.655 2.44ZM117.046 69.384C114.934 69.384 113.228 68.5947 111.926 67.016C110.625 65.416 109.974 63.304 109.974 60.68C109.974 58.056 110.422 55.6773 111.318 53.544C112.236 51.3893 113.537 49.64 115.222 48.296C116.908 46.952 118.774 46.28 120.822 46.28C121.59 46.28 122.273 46.3973 122.87 46.632C124.406 45.608 125.996 45.096 127.638 45.096C128.406 45.096 129.121 45.2133 129.782 45.448C130.465 45.6613 130.966 45.928 131.286 46.248C131.116 46.9733 130.838 47.6347 130.454 48.232C129.452 47.4853 128.438 47.112 127.414 47.112C126.39 47.112 125.452 47.3147 124.598 47.72C125.601 48.7867 126.102 50.3013 126.102 52.264C126.102 54.2053 125.59 55.976 124.566 57.576C123.542 59.176 122.262 59.976 120.726 59.976C119.809 59.976 119.062 59.592 118.486 58.824C117.932 58.056 117.654 57.096 117.654 55.944C117.654 53.1707 118.689 50.664 120.758 48.424C119.073 48.488 117.708 49.5973 116.662 51.752C115.617 53.8853 115.094 56.4667 115.094 59.496C115.094 63.912 116.374 66.12 118.934 66.12C120.684 66.12 122.55 65.032 124.534 62.856L125.654 63.784C125.377 64.2747 124.918 64.8827 124.278 65.608C123.66 66.3333 123.041 66.9413 122.422 67.432C121.804 67.9227 121.004 68.3707 120.022 68.776C119.041 69.1813 118.049 69.384 117.046 69.384ZM123.894 52.584C123.894 50.8347 123.5 49.64 122.71 49C121.772 49.832 121.014 50.8453 120.438 52.04C119.884 53.2347 119.606 54.472 119.606 55.752C119.606 56.4133 119.724 56.9573 119.958 57.384C120.214 57.8107 120.534 58.024 120.918 58.024C121.75 58.024 122.454 57.4373 123.03 56.264C123.606 55.0907 123.894 53.864 123.894 52.584ZM129.268 69.384C128.542 69.384 127.934 69.1387 127.444 68.648C126.974 68.1573 126.74 67.4747 126.74 66.6C126.74 65.704 127.262 62.8773 128.308 58.12C129.374 53.3413 129.908 49.896 129.908 47.784L129.716 46.376C131.38 45.8 132.937 45.512 134.388 45.512C134.601 45.8107 134.708 46.3333 134.708 47.08C134.708 48.7867 134.164 52.0933 133.076 57C132.009 61.8853 131.476 64.7333 131.476 65.544C131.476 66.3333 131.572 66.728 131.764 66.728L134.004 65.928L134.58 67.048C133.854 67.624 132.969 68.1573 131.924 68.648C130.9 69.1387 130.014 69.384 129.268 69.384ZM135.176 63.464C135.176 60.7973 135.976 58.696 137.576 57.16C139.197 55.6027 141.032 54.824 143.08 54.824C144.338 54.824 145.373 55.1333 146.184 55.752C146.994 56.3707 147.4 57.2027 147.4 58.248C147.4 59.272 147.133 60.136 146.6 60.84C146.088 61.544 145.458 62.088 144.712 62.472C143.197 63.2187 141.81 63.688 140.552 63.88L139.784 63.976C139.933 65.9813 140.754 66.984 142.248 66.984C142.76 66.984 143.304 66.856 143.88 66.6C144.456 66.344 144.904 66.088 145.224 65.832L145.704 65.448L146.472 66.472C146.301 66.7067 145.96 67.016 145.448 67.4C144.936 67.784 144.456 68.104 144.008 68.36C142.77 69.0427 141.416 69.384 139.944 69.384C138.472 69.384 137.309 68.8613 136.456 67.816C135.602 66.7707 135.176 65.32 135.176 63.464ZM139.752 62.408C140.84 62.216 141.704 61.7573 142.344 61.032C142.984 60.3067 143.304 59.368 143.304 58.216C143.304 57.064 142.962 56.488 142.28 56.488C141.469 56.488 140.84 57.1813 140.392 58.568C139.965 59.9333 139.752 61.2133 139.752 62.408ZM154.709 56.808C154.709 57.704 154.421 59.2507 153.845 61.448C153.269 63.624 152.981 65.0533 152.981 65.736C152.981 66.3973 153.077 66.728 153.269 66.728C153.397 66.728 153.888 66.5253 154.741 66.12L155.125 65.928L155.669 67.048C155.477 67.2187 155.221 67.432 154.901 67.688C154.581 67.944 153.984 68.296 153.109 68.744C152.234 69.1707 151.424 69.384 150.677 69.384C149.93 69.384 149.344 69.16 148.917 68.712C148.49 68.2427 148.277 67.624 148.277 66.856C148.277 66.0667 148.544 64.68 149.077 62.696C149.61 60.6907 149.877 59.3893 149.877 58.792C149.877 57.896 149.6 57.0533 149.045 56.264L148.757 55.88L148.789 55.464C149.92 55.144 151.754 54.984 154.293 54.984C154.57 55.304 154.709 55.912 154.709 56.808ZM151.061 51.496C150.634 51.0693 150.421 50.504 150.421 49.8C150.421 49.096 150.709 48.4773 151.285 47.944C151.882 47.4107 152.565 47.144 153.333 47.144C154.101 47.144 154.698 47.3573 155.125 47.784C155.552 48.2107 155.765 48.776 155.765 49.48C155.765 50.1627 155.456 50.7707 154.837 51.304C154.24 51.8373 153.568 52.104 152.821 52.104C152.074 52.104 151.488 51.9013 151.061 51.496ZM157.444 69.096H157.22C157.177 68.9253 157.156 68.5413 157.156 67.944C157.156 67.3253 157.444 65.6827 158.02 63.016C158.596 60.3493 158.884 58.824 158.884 58.44C158.884 57.7787 158.585 57.0533 157.988 56.264L157.7 55.88L157.732 55.464C158.884 55.144 160.729 54.984 163.268 54.984C163.524 55.5387 163.652 56.3173 163.652 57.32C163.886 56.936 164.377 56.424 165.124 55.784C165.87 55.144 166.638 54.824 167.428 54.824C168.58 54.824 169.156 55.8267 169.156 57.832C169.049 57.96 168.9 58.1307 168.708 58.344C168.537 58.536 168.174 58.8133 167.62 59.176C167.086 59.5387 166.564 59.7627 166.052 59.848C166.03 59.848 165.849 59.56 165.508 58.984C165.166 58.408 164.91 58.12 164.74 58.12C164.206 58.312 163.737 58.632 163.332 59.08C162.35 63.496 161.86 66.3547 161.86 67.656C161.86 68.1253 161.87 68.456 161.892 68.648C161.145 68.9467 159.662 69.096 157.444 69.096ZM168.332 63.464C168.332 60.7973 169.132 58.696 170.732 57.16C172.353 55.6027 174.188 54.824 176.236 54.824C177.495 54.824 178.529 55.1333 179.34 55.752C180.151 56.3707 180.556 57.2027 180.556 58.248C180.556 59.272 180.289 60.136 179.756 60.84C179.244 61.544 178.615 62.088 177.868 62.472C176.353 63.2187 174.967 63.688 173.708 63.88L172.94 63.976C173.089 65.9813 173.911 66.984 175.404 66.984C175.916 66.984 176.46 66.856 177.036 66.6C177.612 66.344 178.06 66.088 178.38 65.832L178.86 65.448L179.628 66.472C179.457 66.7067 179.116 67.016 178.604 67.4C178.092 67.784 177.612 68.104 177.164 68.36C175.927 69.0427 174.572 69.384 173.1 69.384C171.628 69.384 170.465 68.8613 169.612 67.816C168.759 66.7707 168.332 65.32 168.332 63.464ZM172.908 62.408C173.996 62.216 174.86 61.7573 175.5 61.032C176.14 60.3067 176.46 59.368 176.46 58.216C176.46 57.064 176.119 56.488 175.436 56.488C174.625 56.488 173.996 57.1813 173.548 58.568C173.121 59.9333 172.908 61.2133 172.908 62.408ZM195.904 69.704C194.389 69.704 193.226 69.3413 192.416 68.616C191.605 67.8907 191.2 66.9627 191.2 65.832C191.2 64.68 191.701 63.7413 192.704 63.016C193.728 62.2907 194.922 61.7787 196.288 61.48C196.053 61.096 195.21 59.8373 193.76 57.704C192.885 57.896 192.042 57.992 191.232 57.992C189.44 57.992 188.032 57.5333 187.008 56.616C186.005 55.6773 185.503 54.408 185.503 52.808C185.503 52.1253 185.599 51.3467 185.791 50.472L185.855 50.088C186.73 50.1093 187.445 50.2373 188 50.472C187.637 51.304 187.456 52.168 187.456 53.064C187.456 53.96 187.786 54.6853 188.448 55.24C189.109 55.7733 189.92 56.04 190.88 56.04C191.328 56.04 191.893 55.9653 192.576 55.816C191.616 54.152 191.136 52.7013 191.136 51.464C191.136 49.864 191.786 48.6053 193.088 47.688C194.389 46.7493 195.861 46.28 197.504 46.28C199.168 46.28 200.448 46.664 201.344 47.432C202.261 48.1787 202.72 49.1173 202.72 50.248C202.72 51.3573 202.304 52.392 201.472 53.352C200.64 54.2907 199.712 55.0587 198.688 55.656C200.224 57.6187 201.258 59.6133 201.792 61.64C203.584 61.8747 205.354 62.312 207.104 62.952C206.805 64.0187 206.528 64.7867 206.272 65.256C205.802 64.8933 205.162 64.5307 204.352 64.168C203.541 63.8053 202.784 63.5813 202.08 63.496V63.528C202.08 65.2133 201.429 66.664 200.128 67.88C198.848 69.096 197.44 69.704 195.904 69.704ZM197.44 53.928C198.272 53.544 199.008 53.0107 199.648 52.328C200.309 51.624 200.64 50.9627 200.64 50.344C200.64 49.7253 200.394 49.256 199.904 48.936C199.434 48.5947 198.826 48.424 198.08 48.424C197.333 48.424 196.714 48.584 196.224 48.904C195.754 49.224 195.52 49.6507 195.52 50.184C195.52 50.5253 195.605 50.8773 195.776 51.24C195.946 51.6027 196.085 51.8907 196.192 52.104C196.298 52.3173 196.426 52.5307 196.576 52.744C196.725 52.9573 196.842 53.128 196.928 53.256C197.034 53.384 197.205 53.608 197.44 53.928ZM195.135 67.336C195.712 67.336 196.213 67.0693 196.64 66.536C197.088 65.9813 197.312 65.416 197.312 64.84C197.312 64.2427 197.248 63.7413 197.12 63.336C196.266 63.336 195.424 63.5707 194.592 64.04C193.76 64.5093 193.344 65.064 193.344 65.704C193.344 66.152 193.504 66.536 193.824 66.856C194.144 67.176 194.581 67.336 195.135 67.336ZM216.09 55.752C216.132 55.7093 216.25 55.432 216.442 54.92C217.444 54.92 218.788 55.2187 220.474 55.816C219.94 57.5867 219.514 59.4427 219.194 61.384C218.874 63.304 218.714 64.68 218.714 65.512C218.714 66.3227 218.799 66.728 218.97 66.728C219.098 66.728 219.567 66.5253 220.378 66.12L220.762 65.928L221.338 67.048C221.146 67.2187 220.89 67.432 220.57 67.688C220.271 67.944 219.695 68.296 218.842 68.744C217.988 69.1707 217.22 69.384 216.538 69.384C215.215 69.384 214.447 68.7867 214.234 67.592C212.868 68.7867 211.631 69.384 210.522 69.384C209.434 69.384 208.506 68.9573 207.738 68.104C206.991 67.2507 206.618 65.9067 206.618 64.072C206.618 61.2133 207.204 58.9627 208.378 57.32C209.551 55.656 210.97 54.824 212.634 54.824C213.828 54.824 214.98 55.1333 216.09 55.752ZM212.442 66.664C212.954 66.664 213.53 66.4613 214.17 66.056C214.319 63.048 214.82 60.072 215.674 57.128C215.034 56.8507 214.49 56.712 214.042 56.712C213.274 56.712 212.612 57.4693 212.058 58.984C211.524 60.4773 211.258 62.1307 211.258 63.944C211.258 65.7573 211.652 66.664 212.442 66.664ZM231.945 55.208C231.902 55.7413 231.721 56.36 231.401 57.064C230.59 56.9787 229.822 56.936 229.097 56.936H228.521C227.539 61.6933 227.049 64.6587 227.049 65.832C227.049 66.4507 227.177 66.76 227.433 66.76C227.71 66.76 228.425 66.4933 229.577 65.96L230.153 67.016C228.254 68.5947 226.494 69.384 224.873 69.384C224.126 69.384 223.507 69.1493 223.017 68.68C222.547 68.2107 222.313 67.592 222.313 66.824C222.313 66.0347 222.398 65.1493 222.569 64.168C222.761 63.1867 223.017 61.992 223.337 60.584C223.657 59.1547 223.891 58.0027 224.041 57.128C223.251 57.192 222.665 57.256 222.281 57.32C222.238 57.064 222.217 56.7227 222.217 56.296C222.217 55.848 222.249 55.4853 222.313 55.208H224.329C224.499 54.056 224.585 52.968 224.585 51.944L224.553 50.952V50.856C226.217 50.28 227.785 49.992 229.257 49.992C229.342 50.4187 229.385 50.952 229.385 51.592C229.385 52.232 229.203 53.4373 228.841 55.208H231.945ZM231.872 66.6C231.872 65.6827 232.15 64.1253 232.704 61.928C233.259 59.7093 233.536 58.3547 233.536 57.864C233.536 57.352 233.152 56.68 232.384 55.848L232.416 55.432C233.867 55.1333 235.776 54.984 238.144 54.984C238.251 55.2613 238.304 55.7627 238.304 56.488C238.304 57.2133 238.006 58.76 237.408 61.128C236.811 63.496 236.512 64.968 236.512 65.544C236.512 66.12 236.726 66.408 237.152 66.408C237.771 66.408 238.486 66.184 239.296 65.736C239.382 65.224 239.595 64.2427 239.936 62.792C240.704 59.3787 241.088 56.936 241.088 55.464C241.835 55.1653 243.179 55.016 245.12 55.016H245.728C245.728 56.0187 245.43 57.9813 244.832 60.904C244.235 63.8053 243.936 65.512 243.936 66.024C243.936 66.5147 244.043 66.76 244.256 66.76C244.384 66.76 244.992 66.504 246.08 65.992L246.688 67.016C244.79 68.5947 243.126 69.384 241.696 69.384C241.014 69.384 240.427 69.192 239.936 68.808C239.467 68.424 239.2 67.9227 239.136 67.304C237.408 68.712 235.84 69.416 234.432 69.416C233.686 69.416 233.067 69.1707 232.576 68.68C232.107 68.1893 231.872 67.496 231.872 66.6ZM248.225 69.096H248.001C247.958 68.9253 247.937 68.5413 247.937 67.944C247.937 67.3253 248.225 65.6827 248.801 63.016C249.377 60.3493 249.665 58.824 249.665 58.44C249.665 57.7787 249.366 57.0533 248.769 56.264L248.481 55.88L248.513 55.464C249.665 55.144 251.51 54.984 254.049 54.984C254.305 55.5387 254.433 56.3173 254.433 57.32C254.668 56.936 255.158 56.424 255.905 55.784C256.652 55.144 257.42 54.824 258.209 54.824C259.361 54.824 259.937 55.8267 259.937 57.832C259.83 57.96 259.681 58.1307 259.489 58.344C259.318 58.536 258.956 58.8133 258.401 59.176C257.868 59.5387 257.345 59.7627 256.833 59.848C256.812 59.848 256.63 59.56 256.289 58.984C255.948 58.408 255.692 58.12 255.521 58.12C254.988 58.312 254.518 58.632 254.113 59.08C253.132 63.496 252.641 66.3547 252.641 67.656C252.641 68.1253 252.652 68.456 252.673 68.648C251.926 68.9467 250.444 69.096 248.225 69.096ZM260.105 69.096H259.497C259.497 68.0933 259.796 66.1733 260.393 63.336C261.012 60.4987 261.321 58.888 261.321 58.504C261.321 57.8 261.023 57.0533 260.425 56.264L260.137 55.88L260.169 55.464C261.321 55.144 263.167 54.984 265.705 54.984C265.983 55.3467 266.132 56.008 266.153 56.968C268.009 55.5387 269.577 54.824 270.857 54.824C271.625 54.824 272.233 55.0907 272.681 55.624C273.151 56.1573 273.385 56.8293 273.385 57.64C273.385 58.4293 273.14 59.8053 272.649 61.768C272.159 63.7307 271.913 65.0533 271.913 65.736C271.913 66.3973 271.999 66.728 272.169 66.728C272.297 66.728 272.745 66.5253 273.513 66.12L273.897 65.928L274.473 67.048C274.281 67.2187 274.025 67.432 273.705 67.688C273.385 67.944 272.788 68.296 271.913 68.744C271.06 69.1707 270.292 69.384 269.609 69.384C268.052 69.384 267.273 68.4987 267.273 66.728C267.273 65.9813 267.508 64.6053 267.977 62.6C268.468 60.5947 268.713 59.304 268.713 58.728C268.713 58.152 268.532 57.864 268.169 57.864C267.551 57.864 266.793 58.1307 265.897 58.664C265.833 59.0267 265.62 59.9867 265.257 61.544C264.511 64.8933 264.137 67.2613 264.137 68.648C263.391 68.9467 262.047 69.096 260.105 69.096ZM282.115 56.808C282.115 57.704 281.827 59.2507 281.251 61.448C280.675 63.624 280.387 65.0533 280.387 65.736C280.387 66.3973 280.483 66.728 280.675 66.728C280.803 66.728 281.294 66.5253 282.147 66.12L282.531 65.928L283.075 67.048C282.883 67.2187 282.627 67.432 282.307 67.688C281.987 67.944 281.39 68.296 280.515 68.744C279.641 69.1707 278.83 69.384 278.083 69.384C277.337 69.384 276.75 69.16 276.323 68.712C275.897 68.2427 275.683 67.624 275.683 66.856C275.683 66.0667 275.95 64.68 276.483 62.696C277.017 60.6907 277.283 59.3893 277.283 58.792C277.283 57.896 277.006 57.0533 276.451 56.264L276.163 55.88L276.195 55.464C277.326 55.144 279.161 54.984 281.699 54.984C281.977 55.304 282.115 55.912 282.115 56.808ZM278.467 51.496C278.041 51.0693 277.827 50.504 277.827 49.8C277.827 49.096 278.115 48.4773 278.691 47.944C279.289 47.4107 279.971 47.144 280.739 47.144C281.507 47.144 282.105 47.3573 282.531 47.784C282.958 48.2107 283.171 48.776 283.171 49.48C283.171 50.1627 282.862 50.7707 282.243 51.304C281.646 51.8373 280.974 52.104 280.227 52.104C279.481 52.104 278.894 51.9013 278.467 51.496ZM285.074 69.096H284.466C284.466 68.0933 284.765 66.1733 285.362 63.336C285.981 60.4987 286.29 58.888 286.29 58.504C286.29 57.8 285.991 57.0533 285.394 56.264L285.106 55.88L285.138 55.464C286.29 55.144 288.135 54.984 290.674 54.984C290.951 55.3467 291.101 56.008 291.122 56.968C292.978 55.5387 294.546 54.824 295.826 54.824C296.594 54.824 297.202 55.0907 297.65 55.624C298.119 56.1573 298.354 56.8293 298.354 57.64C298.354 58.4293 298.109 59.8053 297.618 61.768C297.127 63.7307 296.882 65.0533 296.882 65.736C296.882 66.3973 296.967 66.728 297.138 66.728C297.266 66.728 297.714 66.5253 298.482 66.12L298.866 65.928L299.442 67.048C299.25 67.2187 298.994 67.432 298.674 67.688C298.354 67.944 297.757 68.296 296.882 68.744C296.029 69.1707 295.261 69.384 294.578 69.384C293.021 69.384 292.242 68.4987 292.242 66.728C292.242 65.9813 292.477 64.6053 292.946 62.6C293.437 60.5947 293.682 59.304 293.682 58.728C293.682 58.152 293.501 57.864 293.138 57.864C292.519 57.864 291.762 58.1307 290.866 58.664C290.802 59.0267 290.589 59.9867 290.226 61.544C289.479 64.8933 289.106 67.2613 289.106 68.648C288.359 68.9467 287.015 69.096 285.074 69.096ZM304.94 69.384C303.468 69.384 302.316 68.872 301.484 67.848C300.652 66.8027 300.236 65.352 300.236 63.496C300.236 61.128 300.865 59.0907 302.124 57.384C303.404 55.6773 305.164 54.824 307.404 54.824L308.556 54.888C308.919 54.696 309.324 54.6 309.772 54.6C311.457 54.6 312.3 56.1893 312.3 59.368C313.175 59.3253 314.06 59.208 314.956 59.016L315.468 58.888L315.66 60.136C314.956 60.4347 314.007 60.7013 312.812 60.936L312.172 61.064C311.767 63.304 310.945 65.256 309.708 66.92C308.471 68.5627 306.881 69.384 304.94 69.384ZM306.668 66.632C307.564 66.632 308.364 66.056 309.068 64.904C309.793 63.752 310.295 62.536 310.572 61.256C308.289 61.256 307.148 60.4027 307.148 58.696C307.148 58.0133 307.287 57.3733 307.564 56.776L307.724 56.456C307.639 56.4133 307.532 56.392 307.404 56.392C307.276 56.392 307.18 56.4133 307.116 56.456C306.583 56.7973 306.081 57.5973 305.612 58.856C305.143 60.1147 304.908 61.5547 304.908 63.176C304.908 65.48 305.495 66.632 306.668 66.632Z" fill="#fed72b"/>
</g>
<defs>
<clipPath id="clip0_11_48">
<rect width="318" height="81" rx="12" fill="white"/>
</clipPath>
</defs>
</svg>
